<?xml version="1.0" encoding="UTF-8"?>
<svg id="a" xmlns="http://www.w3.org/2000/svg" viewBox="0 0 15.15 2.73">
  <path d="M4.49,.03c-.6,.59-1.2,1.15-1.57,1.46-.36,.31-.76,.48-1.57,.48H.2l.18-.11s.09-.04,.14-.04h.1c1.15,0,1.48-.17,1.96-.57,.39-.33,.63-.56,1.08-1.02,.13-.13,.31-.2,.49-.21h.34Z" style="fill: #fff;"/>
  <path d="M6.78,.12s-.11,.06-.17,.06h-.02c-.82,.04-1.16,.15-1.44,.4-.26,.26-.51,.53-.74,.81-.12,.16-.22,.44,.36,.44h.23c.74,0,1-.17,1.32-.48,.33-.32,.43-.59,.81-.9,.43-.35,.79-.42,1.63-.42h.4s-.05,.04-.1,.08c-.05,.04-.11,.06-.17,.06-.65,.04-.93,.19-1.14,.37-.25,.22-.47,.47-.67,.74-.4,.52-.75,.7-1.39,.7h-1.31c-.92,0-.9-.32-.61-.63,.37-.38,.89-.9,1.06-1.04C5.16,.05,5.56,.04,6.38,.04h.51l-.11,.08h0Z" style="fill: #fff;"/>
  <path d="M6.09,.78h-.78s-.07,0-.1,.02c-.03,.01-.06,.03-.09,.06-.03,.03-.05,.06-.08,.08h.77c.06-.01,.11-.03,.16-.07l.13-.1h0Z" style="fill: #fff;"/>
  <path d="M9.69,.03c-.11,0-.21,.04-.28,.11-.17,.16-.5,.48-.77,.76-.58,.59-1.04,1.08-1.04,1.08h.48c.06,0,.11-.01,.16-.03s.1-.05,.14-.09l.85-.91c.21-.23,.88-.91,.88-.91h-.41Z" style="fill: #fff;"/>
  <path d="M12.52,.03h-.24c-.17,0-.34,.02-.5,.06-.7,.19-1.39,.42-2.06,.69-.35,.14-.59,.3-.16,.65,.17,.14,.36,.27,.55,.39,.28,.15,.68,.16,1.03,.16h1.1c.48,0,.85-.12,1.07-.3,.62-.53,.77-.67,1.27-1.17,.24-.23,.1-.48-.39-.48h-.75c-.31,0-.61,.09-.85,.28-.26,.2-1.23,1.01-1.23,1.01h.38c.13,0,.26,0,.4-.12,.31-.27,.78-.66,1.04-.87,.15-.11,.33-.16,.52-.15h.2c.13,0,.2,.09,.07,.22-.4,.39-.92,.86-1.37,1.26-.12,.1-.22,.17-.68,.17h-.76c-.38,0-.59-.07-.8-.26-.1-.1-.19-.21-.25-.34-.08-.15-.13-.26,.16-.39,.49-.22,.98-.41,1.49-.57,.15-.06,.31-.09,.47-.1,.05,0,.09-.01,.13-.04,.07-.04,.19-.11,.19-.11h0Z" style="fill: #fff;"/>
</svg>