<?xml version="1.0" encoding="UTF-8"?>
<svg id="a" data-name="Layer 1" xmlns="http://www.w3.org/2000/svg" viewBox="0 0 10050.72 1809.02">
  <path d="M356.18,1404.56l255.2-1008.06c58.63-223.48,237.96-328.09,551.79-328.09h855.28c313.83,0,434.54,104.61,379.36,328.09l-75.87,290.06h-572.48l62.08-230.62c6.9-35.66-6.9-45.17-55.18-45.17h-513.86c-44.83,0-65.52,9.51-72.42,45.17l-227.62,889.18c-10.34,33.29,3.45,45.17,51.73,45.17h510.41c51.73,0,68.97-11.89,79.32-45.17l58.63-232.99h572.48l-75.87,292.43c-55.18,221.11-237.96,328.09-548.34,328.09H735.54c-313.83,0-437.98-106.98-379.36-328.09Z" style="fill: #fff;"/>
  <path d="M2556.44,1404.56l255.2-1008.06c58.63-223.48,237.96-328.09,551.79-328.09h855.28c313.83,0,434.54,104.61,379.36,328.09l-75.87,290.06h-572.48l62.07-230.62c6.9-35.66-6.9-45.17-55.18-45.17h-513.86c-44.83,0-65.53,9.51-72.42,45.17l-227.62,889.18c-10.34,33.29,3.45,45.17,51.73,45.17h510.41c51.73,0,68.97-11.89,79.32-45.17l58.63-232.99h572.48l-75.87,292.43c-55.18,221.11-237.96,328.09-548.34,328.09h-855.28c-313.83,0-437.99-106.98-379.36-328.09Z" style="fill: #fff;"/>
  <path d="M4711.87,1404.56l62.08-242.5c34.49-133.14,117.26-244.88,341.42-280.54-186.23-45.17-206.92-135.52-172.43-280.55l51.73-204.46c58.63-223.48,234.51-328.09,548.34-328.09h831.14c313.83,0,437.99,104.61,382.81,328.09l-51.73,204.46c-37.93,145.03-110.36,235.37-317.28,280.55,203.47,35.66,231.06,147.4,196.57,280.54l-62.08,242.5c-55.18,221.11-234.51,328.09-544.89,328.09h-886.32c-313.83,0-437.98-106.98-379.36-328.09Zm1179.46-9.51c48.28,0,65.53-11.89,72.42-45.17l65.52-259.14c10.35-33.29,0-45.17-48.28-45.17h-544.89c-44.84,0-65.52,11.89-72.43,45.17l-68.97,259.14c-6.9,33.29,6.9,45.17,51.73,45.17h544.89Zm144.85-677.58c48.28,0,68.97-9.51,75.87-45.17l58.63-223.48c10.34-33.28-3.45-45.17-55.18-45.17h-486.27c-48.28,0-65.52,11.89-75.87,45.17l-55.18,223.48c-10.35,35.66,3.45,45.17,48.28,45.17h489.72Z" style="fill: #fff;"/>
  <path d="M7018.42,993.21l33.42-134.94h396.24l-23.87,93.8c-7.16,23.04,2.39,31.27,35.81,31.27h315.08c35.81,0,47.74-8.23,54.9-31.27l58.69-217.03c7.16-24.68-9.55-31.27-71.61-31.27h-464.51c-176.83,0-220.23-90.02-190.42-192.76l108.46-412.24c4.71-17.9,20.89-30.38,39.4-30.38h1100.3l-59.68,236.96h-705.26c-17.86,0-33.52,11.9-38.31,29.11l-36.33,130.64c-4.6,16.53,7.83,32.89,24.99,32.89h341.18c295.99,0,396.74,31.15,356.16,185.83l-78.77,306.08c-38.19,153.04-167.09,230.38-384.3,230.38h-549.01c-217.22,0-303.15-74.05-262.57-227.09Z" style="fill: #fff;"/>
  <path d="M8531.77,991.31l176.64-697.72c40.58-154.68,162.31-227.08,379.53-227.08h603.91c217.22,0,303.15,72.41,264.96,227.08l-179.02,697.72c-38.19,153.04-162.32,227.09-379.53,227.09h-603.91c-217.22,0-303.15-74.05-262.57-227.09Zm809.19-9.87c33.42,0,45.35-8.23,52.51-31.27l157.54-615.44c4.78-24.68-4.77-31.27-35.8-31.27h-369.98c-31.03,0-45.35,6.58-50.13,31.27l-157.54,615.44c-7.16,23.04,2.39,31.27,35.81,31.27h367.6Z" style="fill: #fff;"/>
</svg>