<?xml version="1.0" encoding="UTF-8"?>
<svg id="a" data-name="Layer 1" xmlns="http://www.w3.org/2000/svg" viewBox="0 0 450 70">
  <path d="M222.49,20.1c-2.79-2.76-6.51-4.37-10.43-4.51-2.18,0-33.26,0-36.2-.16-4,.12-7.79,1.79-10.58,4.67-3.04,2.95-4.82,6.96-4.97,11.19-.31,3.91,.94,6.52,2.8,8.07,3.57,4.2,10.72,3.42,10.72,3.42h35.03c1.75-.06,3.13-1.51,3.1-3.26-.04-1.61-1.34-2.91-2.95-2.95h-35c-2.18,0-4.67,0-6.22-1.3-.93-1.08-1.24-2.95-.63-5.74,.42-2.04,1.32-3.96,2.61-5.59,1.95-1.66,4.43-2.55,6.99-2.49h33.57c3.57,0,6.06,.77,7.46,2.02,1.17,1.49,1.52,3.48,.93,5.28-1.68,6.76-3.74,13.42-6.17,19.94-.94,2.8-1.55,4.83-2.8,6.22l-.3,.31c-2.96,2.02-10.73,2.18-10.73,2.18l-101.32,.14c-3.02,.16-6-.66-8.52-2.33-1.02-1.09-1.53-2.56-1.41-4.04,.94-4.04,7.62-21.91,7.62-21.91,.81-1.94,1.86-3.76,3.12-5.44,0-.16,.16-.16,.3-.31,1.76-1.23,3.88-1.83,6.03-1.7,0,0,32.02-.16,35.9-.16,2.48,0,4.34,.31,5.44,1.24,.93,1.4,1.08,3.57-.16,6.99-.43,1.45-1.18,2.78-2.18,3.91-2.57,2.09-5.82,3.14-9.13,2.96h-36.7c-1.63,.05-2.97,1.32-3.1,2.95-.16,3.26,3.26,3.26,3.26,3.26l39.01-.16c4.17-.07,8.14-1.8,11.03-4.81,2.69-2.62,4.41-6.09,4.88-9.82,.78-4.97-.63-7.92-2.61-9.78-3.27-3.73-9.32-3.12-9.32-3.12h-39.13c-2.2,.29-4.3,1.14-6.06,2.49-.55,.43-1.07,.89-1.55,1.4-3.42,3.1-5.22,8.86-5.22,8.86l-7.3,21.77s-2.02,4.81,2.95,9.62c.5,.59,1.07,1.12,1.71,1.57,5.13,4.03,15.55,3.26,15.55,3.26h101.48s8.09-.16,11.82-4.36c1.02-.86,1.77-1.99,2.16-3.26,4.98-15.39,4.36-13.99,7.93-25.17,1.71-5.14,.16-8.87-2.49-11.35h-.2Z" style="fill: #fff;"/>
  <path d="M80.76,4.87c-2.02-2.18-5.13-3.57-9.64-3.42-4.04,.16-30,0-37.3,0-3.26,0-6.36,.31-9.62,3.57-2.49,2.33-4.98,6.36-7.46,13.82C11.45,34.35,2.59,60.51,2.59,60.51c-.38,1.62,.48,3.28,2.02,3.91,2.49,.77,4.04-1.71,4.2-2.18,1.55-4.2,4.04-11.5,6.36-18.34,3.43-9.95,6.38-18.96,8.24-24.4,1.55-4.2,2.95-7.46,4.81-9.48,1.31-1.22,3.03-1.9,4.83-1.89,9.79-.31,29.84-.31,34.34,0,1.71,.16,6.69-.16,9.32,2.02,1.3,1.4,1.55,3.57,.47,6.99-.56,1.92-1.57,3.68-2.95,5.13-1.95,1.78-4.52,2.71-7.16,2.61-11.33,.34-18.02-.43-21.25,3.3-1.5,1.4-2.49,3.26-2.8,5.28-.5,3.09,.17,6.24,1.86,8.87,3.57,7.46,3.73,6.21,11.03,20.2,.31,.46,2.02,2.48,4.2,1.55,1.53-.59,2.3-2.3,1.72-3.84-.05-.12-.1-.24-.17-.36-2.32-5.91-11.74-19.89-12.43-23.31-.23-1.52,.1-3.07,.94-4.36,2.16-1.55,6.99-.77,17.08-.93,4.11-.08,8.01-1.8,10.84-4.77,6.38-5.91,8.24-16.47,2.61-21.6l.04-.05Z" style="fill: #fff;"/>
  <path d="M335.01,21.81c.93,0,3.57-.31,3.57-3.12s-2.8-3.1-3.91-3.1c-5.59-.16-17.25-1.24-23.01,4.97-1.14,1.14-2.08,2.46-2.79,3.91-.78,1.71-4.67,13.84-8.24,24.78-1.08,3.42-1.71,5.22-2.95,6.83-.16,.16-.31,.31-.47,.31-2.49,1.86-8.39,2.02-8.39,2.02h-47.22c-2.84,.13-5.63-.8-7.83-2.61-1.09-1.04-1.62-2.54-1.4-4.03,.94-4.04,7.62-21.92,7.62-21.92,.8-1.94,1.85-3.76,3.1-5.44,.16-.16,.16-.3,.31-.46,1.35-1.12,3.08-1.68,4.83-1.57,0,0,35.42-.14,39.46-.14,1.01-.03,2.01,.3,2.8,.93,1.08,1.4,1.4,3.91,.46,6.68-.51,1.64-1.33,3.17-2.43,4.49-1.95,1.67-4.43,2.59-6.99,2.61h-38.79s-2.96,.3-3.12,2.95c-.16,3.1,3.26,3.26,3.26,3.26l40.26-.16c3.75-.38,7.24-2.06,9.87-4.75,1.62-1.56,2.84-3.47,3.57-5.59,2.61-7.62,.94-11.66-1.55-13.84-1.7-1.82-4.03-2.93-6.52-3.1h-41.97c-2.23,.17-4.35,1.04-6.05,2.49-.47,.31-.78,.77-1.3,1.08-3.26,2.95-5.74,9.13-5.74,9.13l-7.26,21.05s-2.16,5.13,2.96,10.09l1.4,1.41c4.67,3.91,15.55,3.26,15.55,3.26h44.6s7.92-.31,11.65-4.51c.98-.8,1.69-1.88,2.02-3.1,5.28-16.32,5.28-15.85,9.32-27.82,.47-1.31,1.18-2.53,2.09-3.59,5.28-4.36,14.45-3.1,19.28-3.42h-.07Z" style="fill: #fff;"/>
  <path d="M392.52,20l-.63-.63c-4.36-4.04-11.03-3.73-11.03-3.73h-29.21s-3.12,.31-3.12,3.1,3.12,3.12,3.12,3.12h28.9s4.81,.16,7.3,2.18c1.86,2.32,.16,5.74,.16,5.74l-6.68,18.65c-.76,2.78-1.97,5.43-3.57,7.83l-.16,.16c-1.55,.94-3.33,1.43-5.14,1.41l-34.18,.16c-.99,.06-1.98-.21-2.8-.77-.77-1.1-1.08-2.96,.16-6.38,.73-1.88,1.78-3.62,3.12-5.13,1.75-1.71,4.07-2.71,6.52-2.8h32.33c1.72-.05,3.12-1.39,3.26-3.1,.16-3.1-3.26-3.1-3.26-3.1h-32.96c-3.7,.08-7.19,1.71-9.62,4.5-2.62,2.65-4.54,5.91-5.59,9.48-2.02,6.38-.47,9.48,1.4,11.19,1.09,1.23,2.57,2.06,4.2,2.33h38.85c3.04,.07,5.96-1.24,7.92-3.57,.6-.5,1.12-1.07,1.57-1.71,1.52-2.39,2.77-4.95,3.73-7.62l7.92-22.38c-.31,0,2.02-4.67-2.48-9.01v.09Z" style="fill: #fff;"/>
</svg>