<?xml version="1.0" encoding="UTF-8"?>
<svg id="Layer_1" data-name="Layer 1" xmlns="http://www.w3.org/2000/svg" viewBox="0 0 450 70">
  <path d="M.17,28.92L24.83,2.25c.66-.71,1.45-1.28,2.34-1.66C28.06,.2,29.01,0,29.98,0H95.84c.1,0,.2,.03,.29,.08,.09,.06,.15,.14,.2,.23,.04,.09,.05,.2,.04,.3-.02,.1-.06,.2-.13,.27l-2.47,2.69c-.49,.53-1.09,.96-1.76,1.25-.67,.29-1.38,.44-2.11,.44H40.73c-.36,0-.72,.07-1.05,.22-.33,.14-.63,.36-.88,.62L22.28,23.96c-.06,.05-.1,.11-.11,.18-.02,.07-.01,.15,.02,.22,.03,.07,.08,.13,.14,.17,.06,.04,.14,.06,.21,.05h31.2c.97,0,1.92-.2,2.81-.59,.89-.39,1.68-.95,2.34-1.66l6.61-7.14c.33-.36,.73-.64,1.17-.83,.44-.19,.92-.29,1.4-.29h14.83c.1,0,.2,.03,.29,.08,.09,.06,.15,.14,.2,.23,.04,.09,.05,.2,.04,.3-.02,.1-.06,.2-.13,.27l-11.7,12.64c-.66,.71-1.45,1.28-2.34,1.66-.89,.39-1.84,.59-2.81,.59H.55c-.11,0-.21-.02-.3-.08-.09-.06-.16-.14-.2-.24-.04-.1-.05-.21-.03-.31,.02-.11,.08-.2,.16-.27H.17Z" style="fill: #fff;"/>
  <path d="M140.51,19.38l8.97-9.7c.07-.07,.12-.17,.13-.27,.02-.1,0-.2-.04-.3-.04-.09-.11-.17-.19-.23-.09-.06-.18-.09-.29-.09h-49.1c-.73,0-1.44,.15-2.11,.44-.66,.29-1.26,.72-1.75,1.25l-17.08,18.47c-.07,.07-.12,.17-.13,.27-.02,.1,0,.2,.04,.3,.04,.09,.11,.17,.19,.23,.09,.06,.19,.09,.29,.09h49.1c.72,0,1.44-.15,2.11-.44,.66-.29,1.26-.72,1.75-1.25l2.47-2.69c.07-.08,.11-.17,.13-.27,.02-.1,0-.2-.04-.3-.04-.09-.11-.17-.19-.23-.08-.06-.18-.08-.29-.09h-40.06c-.07,0-.15-.01-.21-.05-.06-.04-.11-.1-.14-.17-.03-.07-.03-.14-.02-.22,.02-.07,.06-.14,.11-.18l1.92-2.07c.25-.27,.54-.48,.88-.62s.69-.22,1.05-.22h38.63c.72,0,1.44-.14,2.11-.43,.67-.29,1.26-.71,1.76-1.23h0Zm-36.39-5.33h30.39s.07,0,.1,.03c.03,.02,.05,.04,.07,.08,.01,.03,.02,.07,.01,.1,0,.03-.02,.06-.04,.09l-.83,.9c-.16,.18-.36,.32-.58,.42-.22,.1-.46,.15-.7,.15h-30.39s-.07-.01-.09-.03c-.03-.02-.05-.04-.06-.08-.01-.03-.02-.06-.01-.1,0-.03,.02-.06,.04-.09l.82-.9c.16-.18,.36-.33,.58-.43,.22-.1,.46-.16,.71-.16v.02Z" style="fill: #fff;"/>
  <path d="M259.73,19.38l8.97-9.7c.07-.08,.12-.17,.13-.27,.02-.1,0-.21-.04-.3-.04-.09-.11-.17-.2-.23-.09-.06-.19-.08-.29-.08h-49.09c-.73,0-1.44,.15-2.11,.44-.66,.29-1.26,.72-1.76,1.25l-17.08,18.47c-.07,.08-.12,.17-.13,.27-.02,.1,0,.21,.04,.3,.04,.09,.11,.17,.2,.23,.09,.06,.19,.08,.29,.08h49.09c.73,0,1.44-.15,2.11-.44,.67-.29,1.26-.72,1.76-1.25l2.47-2.69c.07-.07,.12-.17,.14-.27,.02-.1,0-.2-.04-.3-.04-.09-.11-.17-.19-.23-.09-.06-.19-.08-.29-.08h-40.07c-.07,0-.14-.02-.2-.06-.06-.04-.11-.1-.14-.16-.03-.07-.04-.14-.02-.21,.02-.07,.05-.14,.1-.19l1.92-2.07c.25-.27,.55-.48,.88-.62,.33-.14,.69-.22,1.06-.22h38.63c.72,0,1.44-.14,2.1-.43,.66-.29,1.26-.71,1.76-1.23h0Zm-36.39-5.33h30.39s.07,0,.1,.03c.03,.02,.05,.04,.07,.08,.01,.03,.02,.07,.01,.1,0,.03-.02,.06-.04,.09l-.83,.9c-.16,.18-.36,.32-.58,.42-.22,.1-.46,.15-.7,.15h-30.39s-.07,0-.1-.03c-.03-.02-.05-.04-.06-.08-.01-.03-.02-.07-.01-.1,0-.03,.02-.06,.04-.09l.83-.9c.16-.18,.36-.33,.58-.43,.22-.1,.46-.16,.71-.16v.02Z" style="fill: #fff;"/>
  <path d="M317.05,10.46l-2.47,2.69c-.07,.08-.12,.17-.13,.27-.02,.1,0,.21,.04,.3,.04,.09,.11,.17,.2,.23,.09,.06,.19,.08,.29,.08h36.57c.07,0,.13,.02,.19,.06,.06,.04,.1,.09,.13,.15,.03,.06,.04,.13,.03,.2-.01,.07-.04,.13-.09,.18l-1.92,2.07c-.25,.27-.55,.48-.89,.62-.34,.14-.7,.22-1.06,.21h-38.63c-.73,0-1.44,.15-2.11,.44-.66,.29-1.26,.72-1.75,1.25l-8.97,9.71c-.07,.08-.12,.17-.13,.27-.02,.1,0,.21,.04,.3s.11,.17,.2,.23c.09,.06,.19,.08,.29,.08h49.09c.73,0,1.44-.15,2.11-.44,.66-.29,1.26-.72,1.76-1.25l17.08-18.47c.07-.08,.12-.17,.13-.27,.02-.1,0-.21-.04-.3-.04-.09-.11-.17-.2-.23-.09-.06-.19-.08-.29-.08h-45.59c-.73,0-1.44,.15-2.11,.44-.66,.29-1.26,.72-1.76,1.25Zm24.78,14.1h-30.39s-.07-.01-.1-.03c-.03-.02-.05-.05-.06-.08-.01-.03-.02-.07-.01-.1,0-.03,.02-.06,.04-.09l.83-.9c.16-.18,.36-.32,.58-.42,.22-.1,.46-.15,.7-.15h30.39s.07,.01,.1,.03c.03,.02,.05,.05,.06,.08,.01,.03,.02,.07,.01,.1,0,.03-.02,.06-.04,.09l-.83,.9c-.16,.18-.36,.32-.58,.42-.22,.1-.46,.15-.7,.15h0Z" style="fill: #fff;"/>
  <path d="M138.67,28.93l17.08-18.47c.49-.53,1.09-.96,1.75-1.25,.66-.29,1.38-.44,2.11-.44h49.1c.1,0,.2,.03,.29,.09,.09,.06,.15,.14,.19,.23,.04,.09,.05,.2,.04,.3-.02,.1-.06,.19-.13,.27l-17.08,18.47c-.49,.53-1.09,.96-1.76,1.25-.66,.29-1.38,.44-2.11,.44h-7.02c-.1,0-.2-.03-.29-.09-.09-.06-.15-.14-.19-.23-.04-.09-.05-.2-.04-.3,.02-.1,.06-.19,.13-.27l13.23-14.31c.05-.05,.07-.11,.09-.18,.01-.07,0-.14-.03-.2-.03-.06-.07-.11-.13-.15-.06-.04-.12-.06-.19-.06h-8.57c-.36,0-.72,.07-1.05,.22-.33,.14-.63,.36-.88,.62l-12.25,13.25c-.49,.53-1.09,.96-1.75,1.25-.66,.29-1.38,.44-2.11,.44h-7.02c-.1,0-.2-.03-.29-.09-.09-.06-.15-.14-.19-.23-.04-.09-.05-.2-.04-.3,.02-.1,.06-.19,.13-.27l13.23-14.31s.08-.11,.09-.18c.01-.07,0-.14-.02-.2-.03-.06-.07-.12-.13-.15-.06-.04-.12-.06-.19-.06h-8.57c-.36,0-.72,.07-1.05,.22-.33,.14-.63,.36-.88,.62l-12.25,13.25c-.49,.53-1.09,.96-1.76,1.25-.67,.29-1.38,.44-2.11,.44h-7.01c-.1,0-.2-.03-.29-.08-.09-.06-.16-.14-.2-.23-.04-.09-.05-.2-.04-.3s.06-.2,.13-.27h0Z" style="fill: #fff;"/>
  <path d="M257.9,28.93l17.08-18.47c.49-.53,1.09-.96,1.76-1.25,.67-.29,1.38-.44,2.11-.44h31.55c.1,0,.2,.03,.29,.08,.09,.06,.15,.14,.2,.23,.04,.09,.05,.2,.04,.3-.02,.1-.06,.2-.13,.27l-2.47,2.69c-.49,.53-1.09,.96-1.75,1.25-.66,.29-1.38,.44-2.11,.44h-21.1c-.36,0-.72,.07-1.05,.22-.33,.14-.63,.36-.88,.62l-12.25,13.25c-.49,.53-1.09,.96-1.75,1.25-.66,.29-1.38,.44-2.11,.44h-7.02c-.1,0-.2-.03-.29-.09-.09-.06-.15-.14-.19-.23-.04-.09-.05-.2-.04-.3,.02-.1,.06-.19,.13-.27h0Z" style="fill: #fff;"/>
</svg>